#!OML:ASF F:\VICON\USERDATA\INSTALL\rory3\rory3.ASF
:FULLY-SPECIFIED
:DEGREES
2150
root 0.0655614 16.4269 -2.08482 18.7867 1.70121 -0.0535925
lowerback 16.0276 0.536616 -2.00835
upperback 2.98014 0.385554 0.231589
thorax -5.82026 0.225944 1.30416
lowerneck -5.73617 -10.5616 -19.6118
upperneck -13.9367 -11.6224 33.6195
head 0.892173 -6.02927 13.959
rclavicle 4.27387e-015 -3.35449e-015
rhumerus 21.9974 10.3148 -89.667
rradius 99.0797
rwrist 33.9225
rhand 24.067 1.49175
rfingers 7.12502
rthumb 48.3032 -20.5784
lclavicle 4.27387e-015 -3.35449e-015
lhumerus 19.9466 -11.9577 88.7614
lradius 95.9795
lwrist -16.0903
lhand 15.2949 39.6136
lfingers 7.12502
lthumb 40.1292 64.8005
rfemur -45.8571 2.23439 16.7874
rtibia 46.8091
rfoot -20.6953 -6.1752
rtoes -21.179
lfemur -47.364 -4.81931 -14.8547
ltibia 47.6369
lfoot -18.1717 0.368518
ltoes -22.0991
2151
root 0.0649022 16.4448 -2.09428 19.2881 1.93284 -0.0712413
lowerback 15.997 0.51795 -1.87653
upperback 2.81832 0.380863 0.205604
thorax -5.97496 0.223819 1.20259
lowerneck -5.02245 -10.5044 -19.7118
upperneck -14.0467 -11.6209 33.646
head 0.745419 -6.08755 14.0355
rclavicle -2.36057e-016 9.26834e-015
rhumerus 20.8096 10.2657 -89.817
rradius 97.9414
rwrist 33.957
rhand 24.3 1.68996
rfingers 7.12502
rthumb 48.5177 -20.2777
lclavicle -2.36057e-016 9.26834e-015
lhumerus 19.2118 -12.1337 89.1751
lradius 94.155
lwrist -16.3139
lhand 15.2161 39.2768
lfingers 7.12502
lthumb 40.055 64.4862
rfemur -46.181 2.14796 16.8051
rtibia 46.4222
rfoot -20.4921 -6.22394
rtoes -20.8677
lfemur -47.8045 -5.00545 -14.6908
ltibia 47.2392
lfoot -17.9313 0.41103
ltoes -22.0405
2152
root 0.0629064 16.4732 -2.10005 19.7433 2.14356 -0.168058
lowerback 15.9003 0.485285 -1.83973
upperback 2.81369 0.354181 0.32282
thorax -5.92675 0.210792 1.31182
lowerneck -4.76981 -10.4984 -19.8601
upperneck -14.1026 -11.6388 33.5783
head 0.692904 -6.1115 14.0511
rclavicle 8.99501e-015 -3.85145e-015
rhumerus 19.8342 10.4396 -89.781
rradius 96.7043
rwrist 33.94
rhand 24.2831 1.66085
rfingers 7.12502
rthumb 48.5021 -20.3142
lclavicle 8.99501e-015 -3.85145e-015
lhumerus 18.6768 -12.2165 89.5069
lradius 92.5383
lwrist -16.3935
lhand 14.557 39.5578
lfingers 7.12502
lthumb 39.4345 64.952
rfemur -46.3816 2.18801 16.8808
rtibia 45.884
rfoot -20.194 -6.40874
rtoes -21.0488
lfemur -48.0915 -5.20384 -14.4216
ltibia 46.712
lfoot -17.6707 0.440484
ltoes -21.6978
2153
root 0.0625332 16.5079 -2.10504 20.0685 2.32054 -0.264115
lowerback 15.8497 0.481482 -1.64255
upperback 3.0044 0.382924 0.299849
thorax -5.69596 0.217811 1.17011
lowerneck -5.04857 -10.6516 -19.7241
upperneck -14.1046 -11.8222 33.536
head 0.777586 -6.18772 13.9579
rclavicle -6.83322e-016 5.7896e-015
rhumerus 19.1379 10.4331 -89.8522
rradius 95.4956
rwrist 33.8533
rhand 24.4948 1.51393
rfingers 7.12502
rthumb 48.6969 -20.3671
lclavicle -6.83322e-016 5.7896e-015
lhumerus 18.3049 -12.4047 89.6485
lradius 91.2531
lwrist -16.8568
lhand 14.5375 40.0566
lfingers 7.12502
lthumb 39.4161 65.4561
rfemur -46.3658 2.26358 16.9439
rtibia 45.2213
rfoot -19.8267 -6.57979
rtoes -21.3353
lfemur -48.1572 -5.4335 -14.1668
ltibia 46.057
lfoot -17.3169 0.50515
ltoes -21.5676
2154
root 0.0572057 16.5421 -2.11692 20.3922 2.48528 -0.209667
lowerback 15.9362 0.446075 -1.49524
upperback 3.14642 0.352146 0.167851
thorax -5.58936 0.197963 0.953111
lowerneck -5.2494 -10.7867 -19.6218
upperneck -14.0806 -11.9959 33.5729
head 0.86437 -6.26567 13.9088
rclavicle 1.93815e-015 -6.70898e-016
rhumerus 18.4629 10.4452 -90.0581
rradius 94.3031
rwrist 33.8643
rhand 24.7253 1.44917
rfingers 7.12502
rthumb 48.9089 -20.3282
lclavicle 1.93815e-015 -6.70898e-016
lhumerus 18.0042 -12.174 89.9093
lradius 89.8984
lwrist -18.3257
lhand 16.4555 39.7958
lfingers 7.12502
lthumb 41.2199 64.6419
rfemur -46.3361 2.48132 16.7851
rtibia 44.46
rfoot -19.3434 -6.84492
rtoes -21.1444
lfemur -48.1857 -5.70894 -14.0302
ltibia 45.2874
lfoot -16.9759 0.633717
ltoes -22.0384
2155
root 0.0507266 16.5789 -2.13296 20.7758 2.71527 -0.125584
lowerback 16.0686 0.451849 -1.61318
upperback 3.17799 0.344364 0.258577
thorax -5.62856 0.196887 1.11733
lowerneck -5.08919 -10.8367 -19.7304
upperneck -14.1688 -12.0737 33.4825
head 0.830532 -6.31455 13.8923
rclavicle -2.73329e-016 1.87603e-015
rhumerus 17.7483 10.4936 -90.0368
rradius 92.9736
rwrist 34.0196
rhand 24.8276 1.67487
rfingers 7.12502
rthumb 49.0028 -20.0561
lclavicle -2.73329e-016 1.87603e-015
lhumerus 17.749 -11.8836 90.45
lradius 88.1443
lwrist -19.4333
lhand 17.6477 39.173
lfingers 7.12502
lthumb 42.3378 63.6489
rfemur -46.3254 2.72459 16.579
rtibia 43.5987
rfoot -18.7204 -7.24999
rtoes -21.0194
lfemur -48.262 -6.04884 -13.8734
ltibia 44.411
lfoot -16.529 0.892939
ltoes -23.6746
2156
root 0.0499326 16.622 -2.13985 21.2095 2.90064 -0.220835
lowerback 16.0348 0.50741 -1.6146
upperback 3.18254 0.432074 0.482611
thorax -5.60984 0.240889 1.33756
lowerneck -4.82634 -10.863 -19.9245
upperneck -14.2802 -12.1287 33.2814
head 0.758725 -6.35227 13.8595
rclavicle -5.96354e-016 -6.01324e-015
rhumerus 17.0732 10.4596 -89.9255
rradius 91.6322
rwrist 33.8492
rhand 24.669 2.1588
rfingers 7.12502
rthumb 48.8571 -19.644
lclavicle -5.96354e-016 -6.01324e-015
lhumerus 17.5914 -11.9917 90.8241
lradius 86.4838
lwrist -19.788
lhand 17.5945 39.2869
lfingers 7.12502
lthumb 42.288 63.7798
rfemur -46.2775 3.04168 16.5125
rtibia 42.6369
rfoot -18.078 -7.6085
rtoes -21.0145
lfemur -48.2789 -6.2134 -13.6031
ltibia 43.4151
lfoot -15.9862 1.07081
ltoes -24.9496
2157
root 0.0543349 16.6723 -2.14017 21.6223 3.03205 -0.26104
lowerback 16 0.536415 -1.48173
upperback 3.19317 0.500999 0.611326
thorax -5.58223 0.272883 1.38453
lowerneck -4.657 -10.908 -20.1075
upperneck -14.3521 -12.2057 33.1221
head 0.724508 -6.39357 13.8305
rclavicle -6.70898e-015 1.0138e-014
rhumerus 16.4951 10.4831 -89.8292
rradius 90.6753
rwrist 33.1317
rhand 24.548 2.09209
rfingers 7.12502
rthumb 48.7459 -19.7651
lclavicle -6.70898e-015 1.0138e-014
lhumerus 17.5268 -12.2071 90.8751
lradius 85.2525
lwrist -20.0307
lhand 17.7369 39.6268
lfingers 7.12502
lthumb 42.4213 64.0741
rfemur -46.1284 3.33508 16.3599
rtibia 41.5838
rfoot -17.5246 -7.94377
rtoes -21.2699
lfemur -48.1602 -6.41237 -13.4237
ltibia 42.3002
lfoot -15.4354 1.14812
ltoes -24.3065
2158
root 0.0588659 16.7263 -2.14196 22.0551 3.15053 -0.0786765
lowerback 16.0615 0.568437 -1.47616
upperback 3.17585 0.542691 0.604285
thorax -5.63541 0.293666 1.36511
lowerneck -4.48272 -10.9601 -20.0344
upperneck -14.4771 -12.2863 32.9481
head 0.654717 -6.4501 13.7482
rclavicle 1.36167e-014 7.85199e-015
rhumerus 16.0589 10.4055 -89.7288
rradius 90.2151
rwrist 32.5882
rhand 24.8785 1.80037
rfingers 7.12502
rthumb 49.0496 -19.9075
lclavicle 1.36167e-014 7.85199e-015
lhumerus 17.4621 -12.4409 90.7542
lradius 84.4784
lwrist -20.3821
lhand 18.04 39.177
lfingers 7.12502
lthumb 42.7051 63.5263
rfemur -45.9574 3.54754 15.9705
rtibia 40.47
rfoot -16.9969 -8.28003
rtoes -21.4751
lfemur -48.0102 -6.88362 -13.3827
ltibia 41.0956
lfoot -14.8046 1.44657
ltoes -23.697
2159
root 0.0608219 16.7773 -2.14692 22.5462 3.26437 0.0768275
lowerback 16.1359 0.581188 -1.50533
upperback 3.14391 0.5552 0.62957
thorax -5.71075 0.301277 1.40555
lowerneck -4.53652 -11.0209 -19.9583
upperneck -14.4592 -12.3733 32.777
head 0.665399 -6.48669 13.6462
rclavicle -1.02374e-014 -3.37934e-015
rhumerus 15.7796 10.2679 -89.6957
rradius 89.9881
rwrist 32.4784
rhand 25.1154 2.11219
rfingers 7.12502
rthumb 49.267 -19.4871
lclavicle -1.02374e-014 -3.37934e-015
lhumerus 17.5456 -12.7074 90.5024
lradius 84.1861
lwrist -20.6432
lhand 18.0571 39.1182
lfingers 7.12502
lthumb 42.721 63.462
rfemur -45.87 3.78521 15.598
rtibia 39.3522
rfoot -16.4635 -8.53275
rtoes -21.455
lfemur -47.902 -7.30698 -13.2862
ltibia 39.8353
lfoot -14.2049 1.70584
ltoes -23.2383
2160
root 0.0641427 16.8239 -2.1516 23.0582 3.39281 0.15927
lowerback 16.1743 0.566381 -1.50745
upperback 3.14732 0.543464 0.756976
thorax -5.72875 0.296658 1.54422
lowerneck -4.84356 -11.1343 -19.9758
upperneck -14.3631 -12.5123 32.584
head 0.759932 -6.52211 13.526
rclavicle -5.66536e-015 -2.18663e-015
rhumerus 15.6955 10.2281 -89.6113
rradius 90.0721
rwrist 32.2532
rhand 25.1949 2.36694
rfingers 7.12502
rthumb 49.3401 -19.1955
lclavicle -5.66536e-015 -2.18663e-015
lhumerus 17.8696 -12.9468 90.1808
lradius 84.307
lwrist -20.7923
lhand 18.3922 39.5471
lfingers 7.12502
lthumb 43.0345 63.7808
rfemur -45.805 4.08143 15.269
rtibia 38.263
rfoot -15.8715 -8.85399
rtoes -21.2432
lfemur -47.8335 -7.59791 -13.1502
ltibia 38.6037
lfoot -13.657 1.96091
ltoes -23.7324
